# xmcd
#
# Track frame offsets:
#	150
#	21075
#	38372
#	52032
#	72655
#	86220
#	101070
#	123900
#	141522
#	160657
#	176367
#	192130
#
# Disc length: 2820 seconds
#
# Revision: 1
# Processed by: cddbd v1.5.1PL0 Copyright (c) Steve Scherf et al.
# Submitted via: audiograbber 1.83.01
#
DISCID=a20b020c
DTITLE=Knut Nordhagen - Blue Rhythm
DYEAR=1995
DGENRE=
TTITLE0=Ain't That Enough
TTITLE1=Invisible Blues
TTITLE2=Trash Can Rhythm
TTITLE3=Whenever You Bleed
TTITLE4=Takin' Care Of Business
TTITLE5=Closin' Down My Heart
TTITLE6=She Said
TTITLE7=The Girl I Left Behind
TTITLE8=Wryday
TTITLE9=Crowded City
TTITLE10=Time In Palm
TTITLE11=Nutology
EXTD=
EXTT0=
EXTT1=
EXTT2=
EXTT3=
EXTT4=
EXTT5=
EXTT6=
EXTT7=
EXTT8=
EXTT9=
EXTT10=
EXTT11=
PLAYORDER=
